<?xml version="1.0" ?><svg fill="none" height="24" viewBox="0 0 24 24" width="24" xmlns="http://www.w3.org/2000/svg"><path clip-rule="evenodd" d="M21.5 14.5C21.5 13.1193 20.3807 12 19 12H11C9.61929 12 8.5 13.1193 8.5 14.5V19.5C8.5 20.8807 9.61929 22 11 22H19C20.3807 22 21.5 20.8807 21.5 19.5V14.5ZM19 13C19.8284 13 20.5 13.6716 20.5 14.5V19.5C20.5 20.3284 19.8284 21 19 21H11C10.1716 21 9.5 20.3284 9.5 19.5V14.5C9.5 13.6716 10.1716 13 11 13H19Z" fill="black" fill-rule="evenodd"/><path clip-rule="evenodd" d="M3.94721 12.9146C3.28231 12.5821 2.5 13.0656 2.5 13.809V20.191C2.5 20.9344 3.28231 21.4179 3.94721 21.0854L9.22361 18.4472C9.393 18.3625 9.5 18.1894 9.5 18V16C9.5 15.8106 9.393 15.6375 9.22361 15.5528L3.94721 12.9146ZM8.5 16.309V17.691L3.5 20.191V13.809L8.5 16.309Z" fill="black" fill-rule="evenodd"/><path clip-rule="evenodd" d="M10.5 2.5C8.567 2.5 7 4.067 7 6C7 7.933 8.567 9.5 10.5 9.5C12.433 9.5 14 7.933 14 6C14 4.067 12.433 2.5 10.5 2.5ZM6 6C6 3.51472 8.01472 1.5 10.5 1.5C12.9853 1.5 15 3.51472 15 6C15 8.48528 12.9853 10.5 10.5 10.5C8.01472 10.5 6 8.48528 6 6Z" fill="black" fill-rule="evenodd"/><path clip-rule="evenodd" d="M17.5 4.5C16.1193 4.5 15 5.61929 15 7C15 8.38071 16.1193 9.5 17.5 9.5C18.8807 9.5 20 8.38071 20 7C20 5.61929 18.8807 4.5 17.5 4.5ZM14 7C14 5.067 15.567 3.5 17.5 3.5C19.433 3.5 21 5.067 21 7C21 8.933 19.433 10.5 17.5 10.5C15.567 10.5 14 8.933 14 7Z" fill="black" fill-rule="evenodd"/></svg>